<svg width="14" height="14" viewBox="0 0 20 20" fill="none" xmlns="http://www.w3.org/2000/svg">
    <path d="M18.3333 2.5H5.83333C5.25833 2.5 4.80833 2.79167 4.50833 3.23333L0 10L4.50833 16.7583C4.80833 17.2 5.25833 17.5 5.83333 17.5H18.3333C19.25 17.5 20 16.75 20 15.8333V4.16667C20 3.25 19.25 2.5 18.3333 2.5ZM18.3333 15.8333H5.89167L2 10L5.88333 4.16667H18.3333V15.8333ZM8.675 14.1667L11.6667 11.175L14.6583 14.1667L15.8333 12.9917L12.8417 10L15.8333 7.00833L14.6583 5.83333L11.6667 8.825L8.675 5.83333L7.5 7.00833L10.4917 10L7.5 12.9917L8.675 14.1667Z" fill="#484848"/>
</svg>
