<svg width="20" height="20" viewBox="0 0 20 20" fill="none" xmlns="http://www.w3.org/2000/svg">
    <path d="M4.16675 9.16665H15.8334V10.8333H4.16675V9.16665ZM10.0017 3.33331C9.55972 3.33287 9.13562 3.50804 8.82275 3.82029C8.50988 4.13254 8.33386 4.55629 8.33341 4.99831C8.33297 5.44034 8.50814 5.86444 8.82039 6.17731C9.13264 6.49019 9.55639 6.66621 9.99842 6.66665C10.4404 6.66709 10.8645 6.49192 11.1774 6.17967C11.4903 5.86742 11.6663 5.44367 11.6667 5.00165C11.6672 4.55962 11.492 4.13552 11.1798 3.82265C10.8675 3.50977 10.4438 3.33376 10.0017 3.33331V3.33331ZM10.0017 13.3333C9.55972 13.3329 9.13562 13.508 8.82275 13.8203C8.50988 14.1325 8.33386 14.5563 8.33341 14.9983C8.33297 15.4403 8.50814 15.8644 8.82039 16.1773C9.13264 16.4902 9.55639 16.6662 9.99842 16.6666C10.4404 16.6671 10.8645 16.4919 11.1774 16.1797C11.4903 15.8674 11.6663 15.4437 11.6667 15.0016C11.6672 14.5596 11.492 14.1355 11.1798 13.8226C10.8675 13.5098 10.4438 13.3338 10.0017 13.3333V13.3333Z"/>
</svg>
