<svg width="14" height="14" viewBox="0 0 20 20" fill="none" xmlns="http://www.w3.org/2000/svg">
    <path d="M2.5 8.33333H11.6667V10H2.5V8.33333ZM2.5 6.66667H11.6667V5H2.5V6.66667ZM2.5 13.3333H8.33333V11.6667H2.5V13.3333ZM15.0083 10.725L15.6 10.1333C15.6771 10.0561 15.7687 9.99479 15.8695 9.95297C15.9703 9.91115 16.0784 9.88963 16.1875 9.88963C16.2966 9.88963 16.4047 9.91115 16.5055 9.95297C16.6063 9.99479 16.6979 10.0561 16.775 10.1333L17.3667 10.725C17.6917 11.05 17.6917 11.575 17.3667 11.9L16.775 12.4917L15.0083 10.725ZM14.4167 11.3167L10 15.7333V17.5H11.7667L16.1833 13.0833L14.4167 11.3167V11.3167Z" fill="#484848"/>
</svg>
