<svg width="20" height="20" viewBox="0 0 20 20" fill="none" xmlns="http://www.w3.org/2000/svg">
<path d="M10.8333 2.5C8.84413 2.5 6.93647 3.29018 5.52995 4.6967C4.12343 6.10322 3.33325 8.01088 3.33325 10H0.833252L4.07492 13.2417L4.13325 13.3583L7.49992 10H4.99992C4.99992 6.775 7.60825 4.16667 10.8333 4.16667C14.0583 4.16667 16.6666 6.775 16.6666 10C16.6666 13.225 14.0583 15.8333 10.8333 15.8333C9.22492 15.8333 7.76659 15.175 6.71659 14.1167L5.53325 15.3C6.22776 15.9983 7.05366 16.5523 7.9633 16.9299C8.87295 17.3075 9.84835 17.5012 10.8333 17.5C12.8224 17.5 14.73 16.7098 16.1366 15.3033C17.5431 13.8968 18.3333 11.9891 18.3333 10C18.3333 8.01088 17.5431 6.10322 16.1366 4.6967C14.73 3.29018 12.8224 2.5 10.8333 2.5V2.5ZM9.99992 6.66667V10.8333L13.5666 12.95L14.1666 11.9417L11.2499 10.2083V6.66667H9.99992Z" fill="#808080"/>
<path d="M10.8333 2.5C8.84413 2.5 6.93647 3.29018 5.52995 4.6967C4.12343 6.10322 3.33325 8.01088 3.33325 10H0.833252L4.07492 13.2417L4.13325 13.3583L7.49992 10H4.99992C4.99992 6.775 7.60825 4.16667 10.8333 4.16667C14.0583 4.16667 16.6666 6.775 16.6666 10C16.6666 13.225 14.0583 15.8333 10.8333 15.8333C9.22492 15.8333 7.76659 15.175 6.71659 14.1167L5.53325 15.3C6.22776 15.9983 7.05366 16.5523 7.9633 16.9299C8.87295 17.3075 9.84835 17.5012 10.8333 17.5C12.8224 17.5 14.73 16.7098 16.1366 15.3033C17.5431 13.8968 18.3333 11.9891 18.3333 10C18.3333 8.01088 17.5431 6.10322 16.1366 4.6967C14.73 3.29018 12.8224 2.5 10.8333 2.5V2.5ZM9.99992 6.66667V10.8333L13.5666 12.95L14.1666 11.9417L11.2499 10.2083V6.66667H9.99992Z" fill="black" fill-opacity="0.5"/>
</svg>
